<svg width="18" height="18" viewBox="0 0 18 18" fill="none" xmlns="http://www.w3.org/2000/svg">
    <g clip-path="url(#clip0_5072_564214)">
        <rect width="18" height="18" fill="white" fill-opacity="0.01" />
        <path fill-rule="evenodd" clip-rule="evenodd"
            d="M1.85373 5.22776C1.90598 5.17537 1.96806 5.13381 2.03639 5.10545C2.10473 5.0771 2.17799 5.0625 2.25198 5.0625C2.32597 5.0625 2.39923 5.0771 2.46757 5.10545C2.53591 5.13381 2.59798 5.17537 2.65023 5.22776L9.00198 11.5806L15.3537 5.22776C15.406 5.17546 15.4681 5.13397 15.5364 5.10567C15.6048 5.07736 15.678 5.06279 15.752 5.06279C15.8259 5.06279 15.8992 5.07736 15.9675 5.10567C16.0358 5.13397 16.0979 5.17546 16.1502 5.22776C16.2025 5.28005 16.244 5.34214 16.2723 5.41047C16.3006 5.47881 16.3152 5.55204 16.3152 5.62601C16.3152 5.69997 16.3006 5.77321 16.2723 5.84154C16.244 5.90987 16.2025 5.97196 16.1502 6.02426L9.40023 12.7743C9.34798 12.8266 9.28591 12.8682 9.21757 12.8966C9.14923 12.9249 9.07597 12.9395 9.00198 12.9395C8.92799 12.9395 8.85473 12.9249 8.78639 12.8966C8.71806 12.8682 8.65598 12.8266 8.60373 12.7743L1.85373 6.02426C1.80135 5.972 1.75979 5.90993 1.73143 5.84159C1.70307 5.77325 1.68848 5.69999 1.68848 5.62601C1.68848 5.55202 1.70307 5.47876 1.73143 5.41042C1.75979 5.34208 1.80135 5.28001 1.85373 5.22776Z"
            fill="#6C757D" />
    </g>
    <defs>
        <clipPath id="clip0_5072_564214">
            <rect width="18" height="18" fill="white" />
        </clipPath>
    </defs>
</svg>